<svg width="21" height="21" viewBox="0 0 21 21" fill="none" xmlns="http://www.w3.org/2000/svg">
<path fill-rule="evenodd" clip-rule="evenodd" d="M9.49212 0.0367052C9.90612 0.0367052 10.2421 0.372705 10.2421 0.786705C10.2421 1.20071 9.90612 1.53671 9.49212 1.53671H5.75312C3.16912 1.53671 1.50012 3.30671 1.50012 6.04571V14.3597C1.50012 17.0987 3.16912 18.8687 5.75312 18.8687H14.5771C17.1611 18.8687 18.8311 17.0987 18.8311 14.3597V10.3317C18.8311 9.91771 19.1671 9.58171 19.5811 9.58171C19.9951 9.58171 20.3311 9.91771 20.3311 10.3317V14.3597C20.3311 17.9537 18.0181 20.3687 14.5771 20.3687H5.75312C2.31212 20.3687 0.00012207 17.9537 0.00012207 14.3597V6.04571C0.00012207 2.45171 2.31212 0.0367052 5.75312 0.0367052H9.49212ZM18.2017 0.915305L19.4187 2.13231C20.0117 2.72431 20.3377 3.51131 20.3367 4.34931C20.3367 5.18731 20.0107 5.97331 19.4187 6.56431L11.9097 14.0733C11.3587 14.6243 10.6247 14.9283 9.84472 14.9283H6.09872C5.89672 14.9283 5.70272 14.8463 5.56172 14.7013C5.42072 14.5573 5.34372 14.3623 5.34872 14.1593L5.44272 10.3803C5.46172 9.62831 5.76472 8.92131 6.29672 8.38831H6.29772L13.7707 0.915305C14.9927 -0.304695 16.9797 -0.304695 18.2017 0.915305ZM13.1551 3.65131L7.35772 9.44931C7.09872 9.70831 6.95172 10.0523 6.94272 10.4173L6.86772 13.4283H9.84472C10.2247 13.4283 10.5807 13.2813 10.8497 13.0123L16.6821 7.17831L13.1551 3.65131ZM14.8307 1.97631L14.2151 2.59031L17.7421 6.11831L18.3587 5.50331C18.6667 5.19531 18.8367 4.78531 18.8367 4.34931C18.8367 3.91231 18.6667 3.50131 18.3587 3.19331L17.1417 1.97631C16.5047 1.34131 15.4687 1.34131 14.8307 1.97631Z" fill="#4F3D56"/>
</svg>
