<svg width="96" height="96" viewBox="0 0 96 96" fill="none" xmlns="http://www.w3.org/2000/svg">
<g filter="url(#filter0_f_1_448)">
<circle cx="48" cy="48" r="28" fill="#0E0D0D" fill-opacity="0.08"/>
</g>
<circle cx="48" cy="48" r="24" fill="#617AFD"/>
<rect width="24" height="24" transform="translate(36 36)" fill="#617AFD"/>
<path d="M52.6602 38.0001C56.0602 38.0001 58.0002 39.9201 58.0002 43.3301V52.6701C58.0002 56.0601 56.0702 58.0001 52.6702 58.0001H43.3302C39.9202 58.0001 38.0002 56.0601 38.0002 52.6701V43.3301C38.0002 39.9201 39.9202 38.0001 43.3302 38.0001H52.6602ZM47.9902 43.5101C47.5302 43.5101 47.1602 43.8801 47.1602 44.3401V47.1601H44.3302C44.1102 47.1601 43.9002 47.2501 43.7402 47.4001C43.5902 47.5601 43.5002 47.7691 43.5002 47.9901C43.5002 48.4501 43.8702 48.8201 44.3302 48.8301H47.1602V51.6601C47.1602 52.1201 47.5302 52.4901 47.9902 52.4901C48.4502 52.4901 48.8202 52.1201 48.8202 51.6601V48.8301H51.6602C52.1202 48.8201 52.4902 48.4501 52.4902 47.9901C52.4902 47.5301 52.1202 47.1601 51.6602 47.1601H48.8202V44.3401C48.8202 43.8801 48.4502 43.5101 47.9902 43.5101Z" fill="#FDFDFD"/>
<defs>
<filter id="filter0_f_1_448" x="0" y="0" width="96" height="96" filterUnits="userSpaceOnUse" color-interpolation-filters="sRGB">
<feFlood flood-opacity="0" result="BackgroundImageFix"/>
<feBlend mode="normal" in="SourceGraphic" in2="BackgroundImageFix" result="shape"/>
<feGaussianBlur stdDeviation="10" result="effect1_foregroundBlur_1_448"/>
</filter>
</defs>
</svg>
