<svg width="20" height="20" viewBox="0 0 20 20" fill="none" xmlns="http://www.w3.org/2000/svg">
<path d="M14.6602 9.15527e-05C18.0602 9.15527e-05 20.0002 1.92009 20.0002 5.33009V14.6701C20.0002 18.0601 18.0702 20.0001 14.6702 20.0001H5.33021C1.92021 20.0001 0.000213623 18.0601 0.000213623 14.6701V5.33009C0.000213623 1.92009 1.92021 9.15527e-05 5.33021 9.15527e-05H14.6602ZM9.99021 5.51009C9.53021 5.51009 9.16021 5.88009 9.16021 6.34009V9.16009H6.33021C6.11021 9.16009 5.90021 9.25009 5.74021 9.40009C5.59021 9.56009 5.50021 9.76909 5.50021 9.99009C5.50021 10.4501 5.87021 10.8201 6.33021 10.8301H9.16021V13.6601C9.16021 14.1201 9.53021 14.4901 9.99021 14.4901C10.4502 14.4901 10.8202 14.1201 10.8202 13.6601V10.8301H13.6602C14.1202 10.8201 14.4902 10.4501 14.4902 9.99009C14.4902 9.53009 14.1202 9.16009 13.6602 9.16009H10.8202V6.34009C10.8202 5.88009 10.4502 5.51009 9.99021 5.51009Z" fill="#FDFDFD"/>
</svg>
